<mxfile host="app.diagrams.net" agent="Mozilla/5.0 (X11; Linux x86_64; rv:137.0) Gecko/20100101 Firefox/137.0" version="26.1.3">
  <diagram name="Page-1" id="VlWO9vf8GBHtBqB5PU-0">
    <mxGraphModel dx="2588" dy="2060" grid="1" gridSize="10" guides="1" tooltips="1" connect="1" arrows="1" fold="1" page="1" pageScale="1" pageWidth="850" pageHeight="1100" math="0" shadow="0">
      <root>
        <mxCell id="0" />
        <mxCell id="1" parent="0" />
        <mxCell id="1yhd7R3F74EVn-NDmOZ4-10" value="&lt;div&gt;Yandex Cloud&amp;nbsp;&lt;/div&gt;&lt;div&gt;zone d&lt;/div&gt;&lt;div&gt;&lt;br&gt;&lt;/div&gt;" style="sketch=0;aspect=fixed;pointerEvents=1;shadow=0;dashed=0;html=1;strokeColor=none;labelPosition=right;verticalLabelPosition=middle;verticalAlign=middle;align=left;fillColor=#00188D;shape=mxgraph.mscae.enterprise.internet_hollow" vertex="1" parent="1">
          <mxGeometry x="810" y="-103" width="322.58" height="200" as="geometry" />
        </mxCell>
        <mxCell id="1yhd7R3F74EVn-NDmOZ4-1" value="L3\L7 protection,&lt;br&gt;Static cash,&lt;br&gt;&lt;div&gt;Balancer,&lt;/div&gt;&lt;div&gt;Filter&lt;/div&gt;" style="sketch=0;aspect=fixed;pointerEvents=1;shadow=0;dashed=0;html=1;strokeColor=none;labelPosition=right;verticalLabelPosition=middle;verticalAlign=middle;align=left;fillColor=#00188D;shape=mxgraph.mscae.enterprise.firewall;spacing=8;" vertex="1" parent="1">
          <mxGeometry x="400" y="360" width="45.45" height="40" as="geometry" />
        </mxCell>
        <mxCell id="1yhd7R3F74EVn-NDmOZ4-8" value="&lt;div&gt;Yandex Cloud&amp;nbsp;&lt;/div&gt;&lt;div&gt;zone a&lt;/div&gt;" style="sketch=0;aspect=fixed;pointerEvents=1;shadow=0;dashed=0;html=1;strokeColor=none;labelPosition=right;verticalLabelPosition=middle;verticalAlign=middle;align=left;fillColor=#00188D;shape=mxgraph.mscae.enterprise.internet_hollow" vertex="1" parent="1">
          <mxGeometry x="-230" y="-103" width="322.58" height="200" as="geometry" />
        </mxCell>
        <mxCell id="1yhd7R3F74EVn-NDmOZ4-9" value="&lt;div&gt;Yandex Cloud&amp;nbsp;&lt;/div&gt;&lt;div&gt;zone b&lt;/div&gt;" style="sketch=0;aspect=fixed;pointerEvents=1;shadow=0;dashed=0;html=1;strokeColor=none;labelPosition=right;verticalLabelPosition=middle;verticalAlign=middle;align=left;fillColor=#00188D;shape=mxgraph.mscae.enterprise.internet_hollow" vertex="1" parent="1">
          <mxGeometry x="261.44" y="-103" width="322.58" height="200" as="geometry" />
        </mxCell>
        <mxCell id="1yhd7R3F74EVn-NDmOZ4-11" style="edgeStyle=orthogonalEdgeStyle;rounded=0;orthogonalLoop=1;jettySize=auto;html=1;exitX=0.5;exitY=0;exitDx=0;exitDy=0;exitPerimeter=0;entryX=0.5;entryY=1;entryDx=0;entryDy=0;entryPerimeter=0;verticalAlign=bottom;dashed=1;" edge="1" parent="1" source="1yhd7R3F74EVn-NDmOZ4-1" target="1yhd7R3F74EVn-NDmOZ4-10">
          <mxGeometry relative="1" as="geometry">
            <Array as="points">
              <mxPoint x="423" y="320" />
              <mxPoint x="971" y="320" />
            </Array>
          </mxGeometry>
        </mxCell>
        <mxCell id="1yhd7R3F74EVn-NDmOZ4-12" style="edgeStyle=orthogonalEdgeStyle;rounded=0;orthogonalLoop=1;jettySize=auto;html=1;exitX=0.5;exitY=0;exitDx=0;exitDy=0;exitPerimeter=0;entryX=0.5;entryY=1;entryDx=0;entryDy=0;entryPerimeter=0;" edge="1" parent="1" source="1yhd7R3F74EVn-NDmOZ4-1" target="1yhd7R3F74EVn-NDmOZ4-8">
          <mxGeometry relative="1" as="geometry">
            <Array as="points">
              <mxPoint x="423" y="310" />
              <mxPoint x="-69" y="310" />
            </Array>
          </mxGeometry>
        </mxCell>
        <mxCell id="1yhd7R3F74EVn-NDmOZ4-14" value="&lt;div&gt;Clients&lt;/div&gt;" style="html=1;verticalLabelPosition=bottom;align=center;labelBackgroundColor=#ffffff;verticalAlign=top;strokeWidth=2;strokeColor=#0080F0;shadow=0;dashed=0;shape=mxgraph.ios7.icons.globe;" vertex="1" parent="1">
          <mxGeometry x="407.73" y="490" width="30" height="30" as="geometry" />
        </mxCell>
        <mxCell id="1yhd7R3F74EVn-NDmOZ4-15" style="edgeStyle=orthogonalEdgeStyle;rounded=0;orthogonalLoop=1;jettySize=auto;html=1;entryX=0.5;entryY=1;entryDx=0;entryDy=0;entryPerimeter=0;" edge="1" parent="1" source="1yhd7R3F74EVn-NDmOZ4-14" target="1yhd7R3F74EVn-NDmOZ4-1">
          <mxGeometry relative="1" as="geometry" />
        </mxCell>
        <mxCell id="1yhd7R3F74EVn-NDmOZ4-16" value="RabbitMQ" style="html=1;verticalLabelPosition=bottom;align=center;labelBackgroundColor=#ffffff;verticalAlign=top;strokeWidth=2;strokeColor=#0080F0;shadow=0;dashed=0;shape=mxgraph.ios7.icons.forward;" vertex="1" parent="1">
          <mxGeometry x="415.45" y="-40" width="30" height="16.8" as="geometry" />
        </mxCell>
        <mxCell id="1yhd7R3F74EVn-NDmOZ4-25" style="edgeStyle=orthogonalEdgeStyle;rounded=0;orthogonalLoop=1;jettySize=auto;html=1;curved=1;entryX=0.7;entryY=0.284;entryDx=0;entryDy=0;entryPerimeter=0;exitX=0.525;exitY=0.029;exitDx=0;exitDy=0;exitPerimeter=0;startArrow=classic;startFill=1;" edge="1" parent="1" source="1yhd7R3F74EVn-NDmOZ4-17" target="1yhd7R3F74EVn-NDmOZ4-18">
          <mxGeometry relative="1" as="geometry">
            <mxPoint x="550" y="-293" as="targetPoint" />
            <Array as="points">
              <mxPoint x="-70" y="-52" />
              <mxPoint x="-70" y="-210" />
              <mxPoint x="970" y="-210" />
              <mxPoint x="970" y="-50" />
              <mxPoint x="971" y="-50" />
            </Array>
          </mxGeometry>
        </mxCell>
        <mxCell id="1yhd7R3F74EVn-NDmOZ4-17" value="RabbitMQ" style="html=1;verticalLabelPosition=bottom;align=center;labelBackgroundColor=#ffffff;verticalAlign=top;strokeWidth=2;strokeColor=#0080F0;shadow=0;dashed=0;shape=mxgraph.ios7.icons.forward;" vertex="1" parent="1">
          <mxGeometry x="-83.71" y="-53" width="30" height="16.8" as="geometry" />
        </mxCell>
        <mxCell id="1yhd7R3F74EVn-NDmOZ4-37" style="edgeStyle=orthogonalEdgeStyle;rounded=0;orthogonalLoop=1;jettySize=auto;html=1;entryX=0.498;entryY=0.036;entryDx=0;entryDy=0;entryPerimeter=0;curved=1;exitX=0.594;exitY=0.129;exitDx=0;exitDy=0;exitPerimeter=0;startArrow=classic;startFill=1;" edge="1" parent="1" source="1yhd7R3F74EVn-NDmOZ4-18" target="1yhd7R3F74EVn-NDmOZ4-16">
          <mxGeometry relative="1" as="geometry">
            <mxPoint x="550" y="-140" as="targetPoint" />
            <Array as="points">
              <mxPoint x="968" y="-170" />
              <mxPoint x="430" y="-170" />
            </Array>
          </mxGeometry>
        </mxCell>
        <mxCell id="1yhd7R3F74EVn-NDmOZ4-18" value="RabbitMQ" style="html=1;verticalLabelPosition=bottom;align=center;labelBackgroundColor=#ffffff;verticalAlign=top;strokeWidth=2;strokeColor=#0080F0;shadow=0;dashed=0;shape=mxgraph.ios7.icons.forward;" vertex="1" parent="1">
          <mxGeometry x="950" y="-53" width="30" height="16.8" as="geometry" />
        </mxCell>
        <mxCell id="1yhd7R3F74EVn-NDmOZ4-19" style="edgeStyle=orthogonalEdgeStyle;rounded=0;orthogonalLoop=1;jettySize=auto;html=1;entryX=0.213;entryY=0.406;entryDx=0;entryDy=0;entryPerimeter=0;startArrow=classic;startFill=1;curved=1;" edge="1" parent="1" source="1yhd7R3F74EVn-NDmOZ4-17" target="1yhd7R3F74EVn-NDmOZ4-16">
          <mxGeometry relative="1" as="geometry">
            <Array as="points">
              <mxPoint x="-70" y="-190" />
              <mxPoint x="420" y="-190" />
              <mxPoint x="420" y="-44" />
              <mxPoint x="422" y="-44" />
            </Array>
          </mxGeometry>
        </mxCell>
        <mxCell id="1yhd7R3F74EVn-NDmOZ4-33" value="&lt;div&gt;VPC&amp;nbsp;&lt;/div&gt;&lt;div&gt;security group &quot;rabbit&quot;&lt;/div&gt;" style="sketch=0;pointerEvents=1;shadow=0;dashed=0;html=1;strokeColor=default;labelPosition=right;verticalLabelPosition=middle;verticalAlign=middle;align=left;fillColor=default;shape=mxgraph.mscae.oms.security" vertex="1" parent="1">
          <mxGeometry x="405" y="-103" width="40" height="40" as="geometry" />
        </mxCell>
        <mxCell id="1yhd7R3F74EVn-NDmOZ4-34" value="&lt;div&gt;VPC&amp;nbsp;&lt;/div&gt;&lt;div&gt;security group &quot;rabbit&quot;&lt;/div&gt;" style="sketch=0;pointerEvents=1;shadow=0;dashed=0;html=1;strokeColor=default;labelPosition=right;verticalLabelPosition=middle;verticalAlign=middle;align=left;fillColor=default;shape=mxgraph.mscae.oms.security" vertex="1" parent="1">
          <mxGeometry x="945" y="-110" width="40" height="40" as="geometry" />
        </mxCell>
        <mxCell id="1yhd7R3F74EVn-NDmOZ4-35" value="&lt;div&gt;VPC&amp;nbsp;&lt;/div&gt;&lt;div&gt;security group &quot;rabbit&quot;&lt;/div&gt;" style="sketch=0;pointerEvents=1;shadow=0;dashed=0;html=1;strokeColor=default;labelPosition=right;verticalLabelPosition=middle;verticalAlign=middle;align=left;fillColor=default;shape=mxgraph.mscae.oms.security" vertex="1" parent="1">
          <mxGeometry x="-88.71000000000004" y="-110" width="40" height="40" as="geometry" />
        </mxCell>
      </root>
    </mxGraphModel>
  </diagram>
</mxfile>
